<?xml version="1.0" standalone="no"?><!DOCTYPE svg PUBLIC "-//W3C//DTD SVG 1.1//EN" "http://www.w3.org/Graphics/SVG/1.1/DTD/svg11.dtd"><svg t="1776068998747" class="icon" viewBox="0 0 1024 1024" version="1.1" xmlns="http://www.w3.org/2000/svg" p-id="37876" xmlns:xlink="http://www.w3.org/1999/xlink" width="200" height="200"><path d="M512 1024A512 512 0 1 1 512 0a512 512 0 0 1 0 1024zM512 224.768a62.464 62.464 0 1 0 0 124.864 62.464 62.464 0 0 0 0-124.8z m62.464 249.792a49.92 49.92 0 0 0-49.92-49.92h-25.024a49.92 49.92 0 0 0-49.92 49.92v299.712c0 27.52 22.336 49.92 49.92 49.92h24.96a49.92 49.92 0 0 0 49.92-49.92V474.56z" fill="#4edea3" p-id="37877"></path></svg>