<?xml version="1.0" standalone="no"?><!DOCTYPE svg PUBLIC "-//W3C//DTD SVG 1.1//EN" "http://www.w3.org/Graphics/SVG/1.1/DTD/svg11.dtd"><svg t="1776062454663" class="icon" viewBox="0 0 1024 1024" version="1.1" xmlns="http://www.w3.org/2000/svg" p-id="3181" xmlns:xlink="http://www.w3.org/1999/xlink" width="200" height="200"><path d="M731 866.7H291.7c-13.8 0-25-11.2-25-25s11.2-25 25-25H731c13.8 0 25 11.2 25 25s-11.2 25-25 25z" fill="#707070" p-id="3182"></path><path d="M513 853.1c-13.8 0-25-11.2-25-25V688.8c0-13.8 11.2-25 25-25s25 11.2 25 25v139.3c0 13.8-11.2 25-25 25z" fill="#707070" p-id="3183"></path><path d="M815.7 139.9H220.3c-64.6 0-117.2 52.6-117.2 117.2v339.4c0 64.6 52.6 117.2 117.2 117.2h595.4c64.6 0 117.2-52.6 117.2-117.2V257.2c0-64.7-52.6-117.3-117.2-117.3zM320 556c0 13.8-11.2 25-25 25s-25-11.2-25-25V452c0-13.8 11.2-25 25-25s25 11.2 25 25v104z m146 0c0 13.8-11.2 25-25 25s-25-11.2-25-25V371c0-13.8 11.2-25 25-25s25 11.2 25 25v185z m149 0c0 13.8-11.2 25-25 25s-25-11.2-25-25V422c0-13.8 11.2-25 25-25s25 11.2 25 25v134z m141 0c0 13.8-11.2 25-25 25s-25-11.2-25-25V298c0-13.8 11.2-25 25-25s25 11.2 25 25v258z" fill="#707070" p-id="3184"></path></svg>