<?xml version="1.0" standalone="no"?><!DOCTYPE svg PUBLIC "-//W3C//DTD SVG 1.1//EN" "http://www.w3.org/Graphics/SVG/1.1/DTD/svg11.dtd"><svg t="1776063384612" class="icon" viewBox="0 0 1024 1024" version="1.1" xmlns="http://www.w3.org/2000/svg" p-id="5797" xmlns:xlink="http://www.w3.org/1999/xlink" width="200" height="200"><path d="M443.208024 15.482803c-35.604302 0-30.120809 15.667122-49.284874 18.355108-19.174304 2.693107 3.875821-7.577562-53.626611 3.199984C282.799226 47.825681 262.503647 120.565157 259.759341 147.511582c-2.739186 26.931065-3.425263 102.675967-1.602552 143.103285 5.478373 24.237959-13.685692 24.237959-13.685691 24.237959-34.447188-2.170869-18.964385 103.484923-18.964386 103.484922 4.951015 26.03507-1.781751 39.003965 49.238794 59.176664 24.299399 68.111019 87.776841 104.140279 87.776841 104.14028s0.317438-6.722526 1.279994 24.391558c-5.191654-2.544627 42.101549 79.528562-116.361658 102.553087-158.478568 22.998925-188.814416 122.280349-218.694587 150.378768-29.880171 28.139379-28.717936 164.474058-28.717936 164.474058l1022.730246 0.542717s-7.598042-136.882516-37.478212-165.016775c-29.869931-28.09842-62.417608-127.384963-220.880816-150.383888-154.06515-21.93397-104.355318-102.850046-105.445873-107.693542 0.286719-12.262339 1.95583-15.498163 1.95583-15.498162s53.800691-41.784111 78.08985-109.92073c38.246209-23.756681 52.807416-27.069305 59.135704-54.440688 0 0 11.243464-106.746346-24.862595-106.198509 0 0-17.116074 5.406693-11.632582-18.846626 5.473253-24.253319 3.650542-99.9931 0.906235-126.934405-2.739186-26.946425 1.392633-103.95596-56.104679-114.748867-39.244604-7.183324-44.364578-0.06144-63.528643-2.749426C623.748561 48.865036 576.547517 0.00512 540.953455 0.00512L443.208024 15.482803z" fill="#272636" p-id="5798"></path></svg>