<?xml version="1.0" standalone="no"?><!DOCTYPE svg PUBLIC "-//W3C//DTD SVG 1.1//EN" "http://www.w3.org/Graphics/SVG/1.1/DTD/svg11.dtd"><svg t="1776062458201" class="icon" viewBox="0 0 1024 1024" version="1.1" xmlns="http://www.w3.org/2000/svg" p-id="3347" xmlns:xlink="http://www.w3.org/1999/xlink" width="200" height="200"><path d="M354.802 259.96l314.9-0.887c14.54-1.692 68.16-63.879 80.533-129.551 11.88-62.085-23.889-81.793-113.46-81.793-89.742 0-71.183 87.133-89.229 87.133-10.519 0-20.06-66.88-60.906-95.274-29.26-20.312-69.672 31.88-108.372 32.282-45.188 0.403-104.09-5.32-104.09 61.138 0 55.073 65.168 126.952 80.624 126.952z m-12.958 9.672c-12.372 0-22.387 8.323-22.387 18.419 0 10.197 10.015 18.418 22.387 18.418h344.32c12.444 0 22.389-8.221 22.389-18.418 0-10.096-10.026-18.419-22.388-18.419h-344.32z m363.111 69.038H326.47C203.66 411.053 99.307 552.15 99.307 737.78c0 204.635 194.92 251.325 417.488 251.325 222.507 0 407.896-48.927 407.896-253.742-0.079-171.929-90.154-320.602-219.736-396.693zM594.277 600.593c15.566 0 28.151 11.808 28.151 26.398s-12.584 26.398-28.151 26.398h-56.312v26.44h56.312c15.566 0 28.151 11.767 28.151 26.397 0 14.59-12.584 26.398-28.151 26.398h-56.312v55.516c0 14.61-12.615 26.418-28.172 26.418-15.536 0-28.151-11.808-28.151-26.418v-55.516H425.34c-15.547 0-28.162-11.808-28.162-26.398 0-14.629 12.615-26.398 28.162-26.398h56.302V653.39H425.34c-15.547 0-28.162-11.808-28.162-26.398 0-14.588 12.615-26.398 28.162-26.398h56.302v-15.436L402.67 513.54c-11.184-10.117-11.456-26.882-0.655-37.361 10.781-10.479 28.634-10.76 39.818-0.605l70.165 63.678 70.166-63.678c11.204-10.156 28.997-9.833 39.808 0.605 10.81 10.479 10.498 27.204-0.645 37.36l-83.366 75.566v11.486h56.316v0.001z m0 0" fill="#A78BFA" p-id="3348"></path></svg>
