<?xml version="1.0" standalone="no"?><!DOCTYPE svg PUBLIC "-//W3C//DTD SVG 1.1//EN" "http://www.w3.org/Graphics/SVG/1.1/DTD/svg11.dtd"><svg t="1776068800090" class="icon" viewBox="0 0 1024 1024" version="1.1" xmlns="http://www.w3.org/2000/svg" p-id="33852" xmlns:xlink="http://www.w3.org/1999/xlink" width="200" height="200"><path d="M535.04 881.7152a25.6 25.6 0 1 1-51.2 0V484.5568H150.2208v335.2576a100.0448 100.0448 0 0 0 99.9936 100.0448h523.5712a100.0448 100.0448 0 0 0 99.9936-100.0448V484.5568H535.04z" fill="#4edea3" p-id="33853"></path><path d="M866.2528 257.7408H786.432A105.4208 105.4208 0 0 0 627.3024 128L512 217.2416 396.6976 128A105.4208 105.4208 0 0 0 237.568 257.7408H157.7472A75.1616 75.1616 0 0 0 82.5856 332.8v26.112a75.2128 75.2128 0 0 0 75.1616 75.3152H483.84V290.4064a25.6 25.6 0 0 1 51.2 0v143.8208h331.2128a75.2128 75.2128 0 0 0 75.1616-75.2128V332.8a75.1616 75.1616 0 0 0-75.1616-75.0592z m-198.144-77.312a38.7584 38.7584 0 0 1 49.6128 59.5456l-19.8144 17.7664h-105.7792l-16.9984-5.12zM306.2784 239.9744a38.7584 38.7584 0 0 1 49.6128-59.5456l92.9792 72.0896-16.9984 5.12H326.0928zM873.7792 601.5488V484.5568H535.04v343.04a491.1104 491.1104 0 0 0 338.7392-226.048zM150.2208 727.4496A489.728 489.728 0 0 0 476.16 833.6896l7.7312-0.4096V484.5568H150.2208z" fill="#4edea3" p-id="33854"></path><path d="M150.2208 608.9728a489.0112 489.0112 0 0 0 234.3424 48.6912 496.9472 496.9472 0 0 0 99.2768-14.2336v-158.72H150.2208zM535.04 484.5568v143.0528a492.288 492.288 0 0 0 204.1856-143.0528zM535.04 434.2272h241.7152a489.984 489.984 0 0 0 70.8096-176.4864H786.432A105.4208 105.4208 0 0 0 627.3024 128L512 217.2416 396.6976 128A105.4208 105.4208 0 0 0 237.568 257.7408H157.7472A75.1616 75.1616 0 0 0 82.5856 332.8v26.112a75.2128 75.2128 0 0 0 75.1616 75.3152H483.84V290.4064a25.6 25.6 0 0 1 51.2 0v143.8208zM431.872 257.7408H326.0928l-19.8144-17.7664a38.7584 38.7584 0 0 1 49.6128-59.5456l92.9792 72.0896z m236.2368-77.312a38.7584 38.7584 0 0 1 49.6128 59.5456l-19.8144 17.7664h-105.7792l-16.9984-5.12z" fill="#4edea3" p-id="33855"></path><path d="M535.04 395.0592a493.312 493.312 0 0 0 131.7376-137.3184h-74.6496l-16.9984-5.12 92.9792-72.0896a38.7072 38.7072 0 0 1 40.96-4.1472 487.2704 487.2704 0 0 0 20.48-63.5392 105.1648 105.1648 0 0 0-102.4 15.104L512 217.2416 396.6976 128A105.4208 105.4208 0 0 0 237.568 257.7408H157.7472A75.1616 75.1616 0 0 0 82.5856 332.8v26.112a75.2128 75.2128 0 0 0 75.1616 75.3152h310.9888c5.12-2.5088 10.24-5.12 15.36-7.7312V290.4064a25.6 25.6 0 0 1 51.2 0v104.6528zM431.872 257.7408H326.0928l-19.8144-17.7664a38.7584 38.7584 0 0 1 49.6128-59.5456l92.9792 72.0896z" fill="#4edea3" p-id="33856"></path><path d="M396.6976 128A105.4208 105.4208 0 0 0 237.568 257.7408H157.7472a75.1104 75.1104 0 0 0-72.8576 56.9856 449.9968 449.9968 0 0 0 105.5744 8.0896 446.2592 446.2592 0 0 0 215.04-65.0752H326.0928l-19.8144-17.7664a38.7584 38.7584 0 0 1 49.6128-59.5456l76.8 59.392a449.1776 449.1776 0 0 0 52.2752-43.6736z" fill="#4edea3" p-id="33857"></path></svg>