<?xml version="1.0" standalone="no"?><!DOCTYPE svg PUBLIC "-//W3C//DTD SVG 1.1//EN" "http://www.w3.org/Graphics/SVG/1.1/DTD/svg11.dtd"><svg t="1776063439021" class="icon" viewBox="0 0 1024 1024" version="1.1" xmlns="http://www.w3.org/2000/svg" p-id="8619" xmlns:xlink="http://www.w3.org/1999/xlink" width="200" height="200"><path d="M353.2 142.5h311.2c21.4 0 38.9-17.5 38.9-38.9s-17.5-38.9-38.9-38.9H353.2c-21.4 0-38.9 17.5-38.9 38.9s17.5 38.9 38.9 38.9z" fill="#333333" p-id="8620"></path><path d="M745.4 103.6c0 42.8-35 77.8-77.8 77.8H356.4c-42.8 0-77.8-35-77.8-77.8-107 0-194.5 87.5-194.5 194.5v466.7c0 107 87.5 194.5 194.5 194.5h466.7c107 0 194.5-87.5 194.5-194.5V298.1c0.1-107-87.5-194.5-194.4-194.5zM443.9 813.4H288.4c-21.4 0-38.9-17.5-38.9-38.9s17.5-38.9 38.9-38.9H444c21.4 0 38.9 17.5 38.9 38.9-0.1 21.4-17.6 38.9-39 38.9zM745.4 619H278.6c-21.4 0-38.9-17.5-38.9-38.9s17.5-38.9 38.9-38.9h466.7c21.4 0 38.9 17.5 38.9 38.9 0.1 21.4-17.4 38.9-38.8 38.9z m3.2-194.5H281.9c-21.4 0-38.9-17.5-38.9-38.9s17.5-38.9 38.9-38.9h466.7c21.4 0 38.9 17.5 38.9 38.9s-17.5 38.9-38.9 38.9z" fill="#333333" p-id="8621"></path></svg>