<?xml version="1.0" standalone="no"?><!DOCTYPE svg PUBLIC "-//W3C//DTD SVG 1.1//EN" "http://www.w3.org/Graphics/SVG/1.1/DTD/svg11.dtd"><svg t="1776067256215" class="icon" viewBox="0 0 1024 1024" version="1.1" xmlns="http://www.w3.org/2000/svg" p-id="23022" xmlns:xlink="http://www.w3.org/1999/xlink" width="200" height="200"><path d="M608.256 108.032c-229.376 0-415.232 185.856-415.232 415.232s185.856 415.232 415.232 415.232 415.232-185.856 415.232-415.232-185.856-415.232-415.232-415.232z m92.672 372.224c16.896 0 31.232 13.824 31.232 31.232 0 16.896-13.824 31.232-31.232 31.232h-60.416v31.232h58.368c16.896 0 31.232 13.824 31.232 31.232 0 16.896-13.824 31.232-31.232 31.232h-58.368v68.096c0 16.896-13.824 30.72-30.72 30.72s-30.72-13.824-30.72-30.72v-68.096h-57.856c-16.896 0-31.232-13.824-31.232-31.232 0-16.896 13.824-31.232 31.232-31.232H578.56V542.72h-57.856c-16.896 0-31.232-13.824-31.232-31.232s13.824-31.232 31.232-31.232H578.56v-15.872l-89.088-87.04c-12.288-11.776-12.288-31.232-0.512-43.52 11.776-12.288 31.744-12.8 44.032-0.512l76.8 74.752 74.24-72.192c12.288-11.776 32.256-11.776 44.032 0.512s11.776 31.744-0.512 43.52L640 464.384v15.872h60.928z" fill="#A78BFA" p-id="23023"></path><path d="M146.944 506.368c2.048-63.488 17.408-122.88 43.008-176.64 8.704-17.92 1.024-39.936-17.408-49.152-18.432-9.216-41.472-1.536-50.688 16.896C92.672 360.448 74.24 430.08 71.68 503.808c-2.048 59.904 6.144 117.76 23.04 172.032l-37.888-25.6c-16.384-11.264-38.912-7.168-50.176 9.216-11.264 16.384-7.168 38.912 9.216 50.176L153.6 803.84l2.56 2.048 6.144 4.096c6.144 4.096 12.8 6.144 19.456 6.656 11.776 0.512 24.064-5.12 31.232-15.36 9.728-14.336 7.168-32.256-3.584-44.544-43.52-72.704-66.048-159.744-62.464-250.368z" fill="#A78BFA" p-id="23024"></path></svg>